<?xml version="1.0" encoding="UTF-8"?>
<svg xmlns="http://www.w3.org/2000/svg" xmlns:xlink="http://www.w3.org/1999/xlink" width="512pt" height="512pt" viewBox="0 0 512 512" version="1.1">
<g id="surface2347156">
<path style=" stroke:none;fill-rule:nonzero;fill:rgb(55.294118%,42.352941%,62.352941%);fill-opacity:1;" d="M 316.457031 196.777344 C 314.574219 196.777344 312.6875 196.121094 311.167969 194.777344 C 307.855469 191.863281 307.535156 186.800781 310.457031 183.488281 L 321.03125 171.480469 C 323.960938 168.160156 329.015625 167.847656 332.320312 170.769531 C 335.632812 173.679688 335.953125 178.742188 333.03125 182.054688 L 322.457031 194.0625 C 320.871094 195.863281 318.664062 196.777344 316.457031 196.777344 Z M 316.457031 196.777344 "/>
<path style=" stroke:none;fill-rule:nonzero;fill:rgb(55.294118%,42.352941%,62.352941%);fill-opacity:1;" d="M 339.039062 227.039062 C 336.007812 227.039062 333.121094 225.320312 331.769531 222.390625 C 329.921875 218.375 331.671875 213.625 335.679688 211.777344 L 350.207031 205.070312 C 354.238281 203.222656 358.976562 204.96875 360.824219 208.984375 C 362.671875 213 360.921875 217.753906 356.910156 219.601562 L 342.382812 226.304688 C 341.296875 226.808594 340.160156 227.039062 339.039062 227.039062 Z M 339.039062 227.039062 "/>
<path style=" stroke:none;fill-rule:nonzero;fill:rgb(55.294118%,42.352941%,62.352941%);fill-opacity:1;" d="M 347.375 263.855469 C 343.007812 263.855469 339.441406 260.351562 339.375 255.976562 C 339.3125 251.550781 342.847656 247.921875 347.257812 247.855469 L 363.246094 247.632812 C 367.664062 247.878906 371.304688 251.105469 371.367188 255.511719 C 371.433594 259.9375 367.894531 263.566406 363.488281 263.632812 L 347.496094 263.855469 C 347.457031 263.855469 347.414062 263.855469 347.375 263.855469 Z M 347.375 263.855469 "/>
<path style=" stroke:none;fill-rule:nonzero;fill:rgb(55.294118%,42.352941%,62.352941%);fill-opacity:1;" d="M 354.855469 307.199219 C 353.808594 307.199219 352.734375 307 351.710938 306.558594 L 337 300.289062 C 332.9375 298.550781 331.046875 293.855469 332.785156 289.785156 C 334.519531 285.71875 339.238281 283.832031 343.289062 285.566406 L 358 291.839844 C 362.0625 293.574219 363.953125 298.273438 362.214844 302.34375 C 360.921875 305.375 357.960938 307.199219 354.855469 307.199219 Z M 354.855469 307.199219 "/>
<path style=" stroke:none;fill-rule:nonzero;fill:rgb(55.294118%,42.352941%,62.352941%);fill-opacity:1;" d="M 329.304688 343.480469 C 327.160156 343.480469 325.03125 342.632812 323.464844 340.945312 L 312.542969 329.246094 C 309.527344 326.023438 309.703125 320.960938 312.929688 317.945312 C 316.167969 314.929688 321.222656 315.097656 324.230469 318.328125 L 335.152344 330.023438 C 338.167969 333.246094 337.992188 338.3125 334.769531 341.328125 C 333.214844 342.769531 331.265625 343.480469 329.304688 343.480469 Z M 329.304688 343.480469 "/>
<path style=" stroke:none;fill-rule:nonzero;fill:rgb(55.294118%,42.352941%,62.352941%);fill-opacity:1;" d="M 291.3125 366.398438 C 288 366.398438 284.894531 364.328125 283.761719 361.015625 L 278.519531 345.894531 C 277.0625 341.726562 279.28125 337.167969 283.457031 335.726562 C 287.632812 334.246094 292.191406 336.488281 293.625 340.664062 L 298.863281 355.785156 C 300.320312 359.953125 298.105469 364.511719 293.929688 365.953125 C 293.0625 366.257812 292.175781 366.398438 291.3125 366.398438 Z M 291.3125 366.398438 "/>
<path style=" stroke:none;fill-rule:nonzero;fill:rgb(36.470588%,73.72549%,61.568627%);fill-opacity:1;" d="M 79.800781 284 C 67.121094 277.046875 57.128906 270.992188 48.9375 265.296875 C 58.59375 257.894531 69.464844 250.761719 78.695312 244.910156 C 83.265625 250.945312 87.832031 257.046875 92.175781 263.128906 C 88.121094 270.128906 83.929688 277.128906 79.800781 284 Z M 79.800781 284 "/>
<path style=" stroke:none;fill-rule:nonzero;fill:rgb(55.294118%,42.352941%,62.352941%);fill-opacity:1;" d="M 76.761719 255.648438 C 78.726562 258.273438 80.695312 260.929688 82.632812 263.59375 C 80.742188 266.816406 78.832031 270.03125 76.921875 273.238281 C 71.785156 270.328125 67.152344 267.574219 62.945312 264.945312 C 67.566406 261.695312 72.273438 258.558594 76.761719 255.648438 M 79.65625 235.585938 C 78.921875 235.585938 78.167969 235.785156 77.511719 236.199219 C 63.609375 244.9375 50.648438 253.550781 39.71875 262.359375 C 37.710938 263.976562 37.777344 267.089844 39.847656 268.625 C 51.0625 276.910156 64.808594 285.007812 79.472656 292.9375 C 80.054688 293.246094 80.6875 293.398438 81.3125 293.398438 C 82.609375 293.398438 83.871094 292.742188 84.585938 291.558594 C 89.839844 282.816406 95.230469 273.847656 100.367188 264.910156 C 101.152344 263.550781 101.078125 261.871094 100.175781 260.59375 C 94.640625 252.753906 88.71875 244.878906 82.839844 237.144531 C 82.054688 236.121094 80.863281 235.585938 79.65625 235.585938 Z M 79.65625 235.585938 "/>
<path style=" stroke:none;fill-rule:nonzero;fill:rgb(36.470588%,73.72549%,61.568627%);fill-opacity:1;" d="M 135.625 163.496094 C 137.191406 163.449219 138.777344 163.398438 140.351562 163.34375 C 139.03125 164.984375 137.742188 166.648438 136.496094 168.34375 C 136.207031 166.726562 135.921875 165.113281 135.625 163.496094 Z M 135.625 163.496094 "/>
<path style=" stroke:none;fill-rule:nonzero;fill:rgb(55.294118%,42.352941%,62.352941%);fill-opacity:1;" d="M 149.457031 154.992188 C 149.390625 154.992188 149.335938 154.992188 149.273438 154.992188 C 142.847656 155.257812 136.414062 155.464844 130.070312 155.648438 C 127.9375 155.710938 126.398438 157.640625 126.792969 159.742188 C 128.015625 166.257812 129.183594 172.832031 130.257812 179.433594 C 130.609375 181.585938 132.390625 182.808594 134.207031 182.808594 C 135.464844 182.808594 136.726562 182.222656 137.535156 180.953125 C 141.921875 174.0625 146.894531 167.59375 152.375 161.585938 C 154.726562 159.023438 152.871094 154.992188 149.457031 154.992188 Z M 149.457031 154.992188 "/>
<path style=" stroke:none;fill-rule:nonzero;fill:rgb(36.470588%,73.72549%,61.568627%);fill-opacity:1;" d="M 106.464844 227.71875 C 108.007812 226.761719 109.566406 225.800781 111.121094 224.839844 C 110.601562 227.257812 110.136719 229.671875 109.734375 232.105469 C 108.640625 230.632812 107.550781 229.167969 106.464844 227.71875 Z M 106.464844 227.71875 "/>
<path style=" stroke:none;fill-rule:nonzero;fill:rgb(55.294118%,42.352941%,62.352941%);fill-opacity:1;" d="M 117.542969 212.089844 C 116.839844 212.089844 116.105469 212.28125 115.40625 212.71875 C 109.902344 216.183594 104.359375 219.617188 98.878906 222.984375 C 96.65625 224.351562 96.121094 227.296875 97.695312 229.375 C 101.566406 234.496094 105.433594 239.679688 109.199219 244.894531 C 110.03125 246.046875 111.238281 246.574219 112.425781 246.574219 C 114.320312 246.574219 116.167969 245.238281 116.382812 242.976562 C 117.222656 234.097656 118.902344 225.464844 121.320312 217.144531 C 122.105469 214.414062 119.984375 212.089844 117.542969 212.089844 Z M 117.542969 212.089844 "/>
<path style=" stroke:none;fill-rule:nonzero;fill:rgb(36.470588%,73.72549%,61.568627%);fill-opacity:1;" d="M 33.664062 236.191406 C 34.9375 221.824219 37.574219 207.664062 41.550781 193.894531 C 47.121094 202.65625 53.257812 211.199219 58.976562 218.894531 C 49.136719 225.207031 40.871094 230.847656 33.664062 236.191406 Z M 33.664062 236.191406 "/>
<path style=" stroke:none;fill-rule:nonzero;fill:rgb(55.294118%,42.352941%,62.352941%);fill-opacity:1;" d="M 45.03125 213.335938 C 45.863281 214.503906 46.6875 215.664062 47.519531 216.808594 C 46.304688 217.617188 45.113281 218.40625 43.9375 219.191406 C 44.28125 217.230469 44.640625 215.28125 45.03125 213.335938 M 40.382812 180.265625 C 38.777344 180.265625 37.175781 181.191406 36.59375 182.953125 C 30.097656 202.472656 26.128906 223.144531 25.070312 244.585938 C 24.953125 247.015625 26.984375 248.753906 29.121094 248.753906 C 29.953125 248.753906 30.792969 248.488281 31.535156 247.902344 C 42.097656 239.535156 54.070312 231.457031 66.894531 223.335938 C 68.863281 222.089844 69.359375 219.414062 67.960938 217.550781 C 58.910156 205.480469 50.519531 193.71875 43.792969 182.199219 C 43.023438 180.894531 41.695312 180.265625 40.382812 180.265625 Z M 40.382812 180.265625 "/>
<path style=" stroke:none;fill-rule:nonzero;fill:rgb(36.470588%,73.72549%,61.568627%);fill-opacity:1;" d="M 109.519531 358.894531 C 97.425781 357.878906 86.425781 356.648438 76.6875 355.214844 C 80.625 347.152344 85.488281 338.207031 91.921875 327.144531 L 112.105469 337.449219 C 111.136719 344.617188 110.265625 351.808594 109.519531 358.894531 Z M 109.519531 358.894531 "/>
<path style=" stroke:none;fill-rule:nonzero;fill:rgb(55.294118%,42.352941%,62.352941%);fill-opacity:1;" d="M 95.070312 337.734375 L 96.398438 338.414062 L 98.265625 339.367188 C 99.992188 340.246094 101.71875 341.128906 103.441406 342 C 103.089844 344.742188 102.753906 347.488281 102.433594 350.222656 C 97.761719 349.777344 93.273438 349.296875 88.976562 348.777344 C 90.816406 345.335938 92.832031 341.679688 95.070312 337.734375 M 90.40625 317.878906 C 89.023438 317.878906 87.671875 318.601562 86.929688 319.863281 C 79.496094 332.511719 72.65625 344.777344 67.144531 356.664062 C 66.03125 359.0625 67.519531 361.871094 70.128906 362.296875 C 83.535156 364.472656 98.246094 366.046875 112.800781 367.183594 C 112.902344 367.191406 113.007812 367.191406 113.105469 367.191406 C 115.152344 367.191406 116.886719 365.59375 117.089844 363.519531 C 118.175781 352.367188 119.417969 342.847656 120.433594 335.710938 C 120.671875 334.023438 119.832031 332.40625 118.3125 331.632812 C 114.105469 329.472656 109.824219 327.289062 105.511719 325.097656 C 101.089844 322.839844 96.648438 320.585938 92.214844 318.304688 C 91.640625 318.015625 91.023438 317.878906 90.40625 317.878906 Z M 90.40625 317.878906 "/>
<path style=" stroke:none;fill-rule:nonzero;fill:rgb(36.470588%,73.72549%,61.568627%);fill-opacity:1;" d="M 86.679688 201.617188 C 78.480469 190.65625 70.328125 179.246094 64.128906 168.382812 C 76.832031 166.128906 90.464844 165.167969 102.742188 164.59375 C 104.105469 171.761719 105.671875 180.375 107.015625 189.007812 C 105.175781 190.136719 103.304688 191.214844 101.433594 192.3125 C 97.113281 194.832031 92.648438 197.457031 88.335938 200.480469 C 87.785156 200.871094 87.222656 201.246094 86.679688 201.617188 Z M 86.679688 201.617188 "/>
<path style=" stroke:none;fill-rule:nonzero;fill:rgb(55.294118%,42.352941%,62.352941%);fill-opacity:1;" d="M 96.160156 172.945312 C 96.863281 176.808594 97.574219 180.832031 98.246094 184.902344 C 97.960938 185.070312 97.664062 185.246094 97.375 185.414062 C 94.488281 187.105469 91.527344 188.839844 88.558594 190.71875 C 84.625 185.335938 80.792969 179.902344 77.296875 174.542969 C 83.601562 173.808594 89.984375 173.3125 96.160156 172.945312 M 106.007812 156.441406 C 105.953125 156.441406 105.894531 156.441406 105.839844 156.441406 C 88.328125 157.183594 71.785156 158.464844 57.121094 161.601562 C 54.574219 162.144531 53.214844 165.007812 54.425781 167.3125 C 61.433594 180.6875 71.558594 194.855469 82.671875 209.609375 C 83.390625 210.566406 84.503906 211.070312 85.632812 211.070312 C 86.304688 211.070312 86.976562 210.894531 87.582031 210.519531 C 89.375 209.414062 91.167969 208.28125 92.953125 207.023438 C 99.535156 202.390625 106.679688 198.703125 113.488281 194.40625 C 114.847656 193.550781 115.558594 191.976562 115.328125 190.390625 C 113.792969 180.136719 111.902344 169.832031 109.960938 159.679688 C 109.59375 157.792969 107.921875 156.441406 106.007812 156.441406 Z M 106.007812 156.441406 "/>
<path style=" stroke:none;fill-rule:nonzero;fill:rgb(36.470588%,73.72549%,61.568627%);fill-opacity:1;" d="M 48.585938 338.863281 C 43.054688 325.015625 38.945312 310.648438 36.304688 295.96875 C 43.953125 301 52.710938 306.214844 63.136719 311.96875 C 57.320312 322.023438 52.574219 330.800781 48.585938 338.863281 Z M 48.585938 338.863281 "/>
<path style=" stroke:none;fill-rule:nonzero;fill:rgb(55.294118%,42.352941%,62.352941%);fill-opacity:1;" d="M 48.28125 312.753906 C 49.558594 313.496094 50.863281 314.246094 52.199219 315.007812 C 51.464844 316.320312 50.742188 317.609375 50.046875 318.878906 C 49.425781 316.839844 48.832031 314.800781 48.28125 312.753906 M 30.921875 283.425781 C 28.671875 283.425781 26.574219 285.390625 26.921875 287.9375 C 29.9375 309.871094 36.023438 330.816406 44.742188 350.34375 C 45.433594 351.886719 46.863281 352.65625 48.304688 352.65625 C 49.792969 352.65625 51.289062 351.847656 52.015625 350.265625 C 57.679688 337.902344 64.558594 325.351562 72.105469 312.464844 C 73.238281 310.519531 72.542969 308.007812 70.566406 306.929688 C 57.023438 299.566406 44.207031 292.007812 33.167969 284.152344 C 32.464844 283.648438 31.6875 283.425781 30.921875 283.425781 Z M 30.921875 283.425781 "/>
<path style=" stroke:none;fill-rule:nonzero;fill:rgb(36.470588%,73.72549%,61.568627%);fill-opacity:1;" d="M 129.441406 131.136719 C 126.65625 116.359375 124.585938 103.761719 123.609375 92.273438 C 133.769531 95.414062 145.214844 99.574219 159.648438 105.351562 C 158.199219 110.441406 152.640625 130.351562 152.640625 130.351562 C 144.921875 130.6875 137.105469 130.910156 129.441406 131.136719 Z M 129.441406 131.136719 "/>
<path style=" stroke:none;fill-rule:nonzero;fill:rgb(55.294118%,42.352941%,62.352941%);fill-opacity:1;" d="M 132.953125 103.792969 C 138.144531 105.617188 143.761719 107.703125 149.976562 110.128906 C 149.214844 112.832031 148.464844 115.535156 147.710938 118.230469 L 147.335938 119.574219 L 146.496094 122.59375 C 143.023438 122.71875 139.527344 122.832031 136.054688 122.9375 C 134.824219 116.105469 133.777344 109.761719 132.953125 103.792969 M 119.183594 82.769531 C 116.992188 82.769531 115.089844 84.617188 115.207031 86.9375 C 115.984375 101.601562 118.769531 117.902344 122.015625 134.992188 C 122.480469 137.433594 124.59375 139.199219 127.054688 139.199219 C 127.105469 139.199219 127.152344 139.199219 127.199219 139.199219 C 136.65625 138.9375 146.398438 138.664062 155.929688 138.207031 C 157.632812 138.128906 159.078125 136.984375 159.542969 135.335938 C 160.609375 131.558594 161.671875 127.726562 162.753906 123.863281 C 164.585938 117.289062 166.425781 110.679688 168.320312 104.089844 C 168.886719 102.121094 167.871094 100.03125 165.976562 99.265625 C 150.34375 92.945312 134.824219 87.097656 120.28125 82.921875 C 119.910156 82.816406 119.542969 82.769531 119.183594 82.769531 Z M 119.183594 82.769531 "/>
<path style=" stroke:none;fill-rule:nonzero;fill:rgb(36.470588%,73.72549%,61.568627%);fill-opacity:1;" d="M 68.472656 134.871094 C 75.464844 124.097656 83.398438 113.902344 92.175781 104.425781 C 93.34375 113.953125 94.96875 123.558594 96.574219 132.335938 C 85.910156 132.945312 76.734375 133.777344 68.472656 134.871094 Z M 68.472656 134.871094 "/>
<path style=" stroke:none;fill-rule:nonzero;fill:rgb(55.294118%,42.352941%,62.352941%);fill-opacity:1;" d="M 95.191406 91.480469 C 94.214844 91.480469 93.222656 91.839844 92.433594 92.632812 C 78.847656 106.230469 66.929688 121.496094 57.046875 138.121094 C 55.457031 140.800781 57.519531 144.144531 60.464844 144.144531 C 60.6875 144.144531 60.910156 144.128906 61.144531 144.089844 C 73.910156 141.902344 87.601562 140.785156 101.527344 140.105469 C 103.953125 139.984375 105.710938 137.753906 105.265625 135.367188 C 102.632812 121.367188 100.351562 107.855469 99.222656 95.105469 C 99.023438 92.886719 97.128906 91.480469 95.191406 91.480469 Z M 95.191406 91.480469 "/>
<path style=" stroke:none;fill-rule:nonzero;fill:rgb(36.470588%,73.72549%,61.568627%);fill-opacity:1;" d="M 169.078125 74.078125 C 158.953125 70.070312 150.121094 66.800781 142.023438 64.0625 C 153.878906 57 166.375 51.054688 179.328125 46.304688 C 175.824219 54.703125 172.441406 63.886719 169.078125 74.078125 Z M 169.078125 74.078125 "/>
<path style=" stroke:none;fill-rule:nonzero;fill:rgb(55.294118%,42.352941%,62.352941%);fill-opacity:1;" d="M 165.152344 60.855469 C 164.832031 61.761719 164.511719 62.671875 164.183594 63.59375 C 163.296875 63.246094 162.414062 62.910156 161.542969 62.585938 C 162.742188 61.992188 163.945312 61.414062 165.152344 60.855469 M 186.679688 35.542969 C 186.289062 35.542969 185.871094 35.609375 185.457031 35.734375 C 165.824219 42.03125 147.34375 50.871094 130.390625 61.878906 C 127.550781 63.71875 128.246094 68.039062 131.480469 69.046875 C 144.046875 72.96875 157.046875 77.855469 170.105469 83.097656 C 170.59375 83.289062 171.097656 83.382812 171.585938 83.382812 C 173.265625 83.382812 174.832031 82.3125 175.375 80.609375 C 179.769531 66.871094 184.632812 53.609375 190.238281 41.296875 C 191.496094 38.535156 189.425781 35.542969 186.679688 35.542969 Z M 186.679688 35.542969 "/>
<path style=" stroke:none;fill-rule:nonzero;fill:rgb(36.470588%,73.72549%,61.568627%);fill-opacity:1;" d="M 106.449219 421.9375 C 95.023438 411.625 84.71875 400.199219 75.671875 387.832031 C 85.175781 389.191406 95.761719 390.359375 107.070312 391.320312 C 106.703125 400.230469 106.488281 411.183594 106.449219 421.9375 Z M 106.449219 421.9375 "/>
<path style=" stroke:none;fill-rule:nonzero;fill:rgb(55.294118%,42.352941%,62.352941%);fill-opacity:1;" d="M 94.191406 398.152344 C 95.71875 398.3125 97.257812 398.464844 98.808594 398.609375 C 98.769531 400.078125 98.726562 401.585938 98.6875 403.113281 C 97.167969 401.480469 95.664062 399.824219 94.191406 398.152344 M 67.03125 378.496094 C 63.984375 378.496094 61.921875 382.015625 63.710938 384.6875 C 76.039062 403.105469 90.960938 419.640625 107.921875 433.808594 C 108.679688 434.441406 109.550781 434.71875 110.40625 434.71875 C 112.488281 434.71875 114.472656 433.054688 114.464844 430.65625 C 114.367188 415.296875 114.679688 399.023438 115.238281 387.824219 C 115.34375 385.65625 113.734375 383.816406 111.566406 383.648438 C 96.632812 382.472656 81.550781 380.808594 67.695312 378.542969 C 67.464844 378.519531 67.246094 378.496094 67.03125 378.496094 Z M 67.03125 378.496094 "/>
<path style=" stroke:none;fill-rule:nonzero;fill:rgb(36.470588%,73.72549%,61.568627%);fill-opacity:1;" d="M 256.207031 479.625 C 214.816406 479.625 174.433594 468.191406 139.28125 446.542969 C 138.726562 429.207031 138.984375 407.527344 139.542969 393.367188 C 162.425781 394.320312 193.375 394.550781 202.617188 394.601562 C 219.878906 401.296875 237.910156 404.6875 256.230469 404.6875 C 264.230469 404.6875 272.34375 404.023438 280.34375 402.726562 C 345.792969 392.070312 397.824219 336.519531 404.070312 270.625 C 408.105469 228.167969 394.625 187.535156 366.128906 156.207031 C 338.023438 125.3125 297.960938 107.59375 256.222656 107.59375 C 254.464844 107.59375 252.695312 107.632812 250.871094 107.710938 L 270.753906 76.71875 C 273.960938 71.71875 272.976562 65.015625 268.472656 61.136719 L 236.230469 33.574219 C 242.921875 32.96875 249.617188 32.664062 256.222656 32.664062 C 318.519531 32.664062 376.351562 57.671875 419.054688 103.070312 C 461.71875 148.441406 483.113281 207.824219 479.273438 270.265625 C 472.441406 381.632812 379.753906 473.457031 268.246094 479.3125 C 264.207031 479.519531 260.191406 479.625 256.207031 479.625 Z M 256.207031 479.625 "/>
<path style=" stroke:none;fill-rule:nonzero;fill:rgb(55.294118%,42.352941%,62.352941%);fill-opacity:1;" d="M 256.832031 40.65625 C 316.664062 40.824219 372.191406 64.910156 413.222656 108.542969 C 454.367188 152.289062 474.984375 209.542969 471.289062 269.769531 C 464.695312 377.136719 375.328125 465.671875 267.824219 471.320312 C 263.96875 471.519531 260.0625 471.625 256.214844 471.625 C 217.742188 471.625 180.175781 461.382812 147.152344 441.953125 C 146.839844 428.777344 146.953125 413.734375 147.273438 401.65625 C 168 402.335938 191.6875 402.535156 201.113281 402.59375 C 218.863281 409.289062 237.382812 412.6875 256.214844 412.6875 C 264.648438 412.6875 273.199219 411.992188 281.625 410.625 C 351.710938 399.222656 405.34375 341.960938 412.03125 271.382812 C 416.273438 226.65625 402.070312 183.847656 372.039062 150.839844 C 344.488281 120.550781 306.039062 102.28125 265.398438 99.878906 L 277.480469 81.046875 C 282.847656 72.6875 281.191406 61.503906 273.640625 55.046875 L 256.832031 40.65625 M 256.214844 24.65625 C 245.984375 24.65625 235.921875 25.351562 226.039062 26.65625 C 222.640625 27.105469 221.425781 31.441406 224.03125 33.664062 L 263.246094 67.199219 C 264.769531 68.496094 265.097656 70.71875 264.015625 72.398438 L 239.792969 110.160156 C 238.078125 112.832031 240.007812 116.296875 243.070312 116.296875 C 243.207031 116.296875 243.351562 116.289062 243.496094 116.273438 C 247.679688 115.847656 251.910156 115.59375 256.214844 115.59375 C 338.367188 115.59375 404.054688 186.070312 396.105469 269.863281 C 390.144531 332.703125 341.359375 384.6875 279.054688 394.824219 C 271.320312 396.078125 263.695312 396.679688 256.214844 396.679688 C 237.800781 396.679688 220.265625 393.039062 204.152344 386.601562 C 192.230469 386.550781 158.800781 386.273438 135.863281 385.191406 C 135.800781 385.191406 135.734375 385.183594 135.671875 385.183594 C 133.558594 385.183594 131.839844 386.816406 131.734375 388.945312 C 130.96875 404.574219 130.679688 430.414062 131.359375 448.960938 C 131.40625 450.304688 132.121094 451.488281 133.257812 452.207031 C 168.886719 474.609375 211.023438 487.609375 256.214844 487.609375 C 260.335938 487.609375 264.488281 487.496094 268.65625 487.28125 C 384.953125 481.167969 480.113281 386.976562 487.246094 270.734375 C 495.511719 136.289062 388.902344 24.65625 256.214844 24.65625 Z M 256.214844 24.65625 "/>
<path style=" stroke:none;fill-rule:nonzero;fill:rgb(36.470588%,73.72549%,61.568627%);fill-opacity:1;" d="M 108.640625 299.152344 C 109.871094 297.105469 111.113281 295.03125 112.335938 292.96875 C 113.167969 296.160156 114.105469 299.335938 115.144531 302.472656 Z M 108.640625 299.152344 "/>
<path style=" stroke:none;fill-rule:nonzero;fill:rgb(55.294118%,42.352941%,62.352941%);fill-opacity:1;" d="M 114.0625 278.113281 C 112.753906 278.113281 111.425781 278.742188 110.625 280.105469 C 107.28125 285.832031 103.878906 291.527344 100.511719 297.136719 C 100.359375 297.382812 100.144531 297.753906 99.886719 298.175781 C 98.894531 299.824219 99.105469 303.246094 101.519531 304.488281 C 105.015625 306.28125 109.9375 308.792969 113.015625 310.359375 C 116.632812 312.199219 120.199219 314.023438 123.726562 315.832031 C 124.273438 316.113281 124.832031 316.238281 125.351562 316.238281 C 127.160156 316.238281 128.585938 314.777344 127.832031 313.089844 C 123.359375 303.0625 119.992188 292.441406 117.960938 281.34375 C 117.574219 279.265625 115.832031 278.113281 114.0625 278.113281 Z M 114.0625 278.113281 "/>
<path style=" stroke:none;fill-rule:nonzero;fill:rgb(36.470588%,73.72549%,61.568627%);fill-opacity:1;" d="M 142.023438 360.921875 C 142.351562 357.824219 142.6875 354.886719 143.023438 352.121094 C 145.695312 355.273438 148.511719 358.3125 151.449219 361.238281 C 148.207031 361.152344 145.046875 361.039062 142.023438 360.921875 Z M 142.023438 360.921875 "/>
<path style=" stroke:none;fill-rule:nonzero;fill:rgb(55.294118%,42.352941%,62.352941%);fill-opacity:1;" d="M 140.289062 338.167969 C 138.441406 338.167969 136.609375 339.449219 136.3125 341.609375 C 135.457031 347.847656 134.503906 355.542969 133.632812 364.304688 C 133.40625 366.574219 135.089844 368.617188 137.367188 368.726562 C 144.808594 369.070312 153.382812 369.328125 161.953125 369.519531 C 161.984375 369.519531 162.015625 369.519531 162.054688 369.519531 C 165.71875 369.519531 167.449219 364.96875 164.648438 362.558594 C 156.761719 355.769531 149.632812 348.128906 143.414062 339.753906 C 142.59375 338.664062 141.433594 338.167969 140.289062 338.167969 Z M 140.289062 338.167969 "/>
<path style=" stroke:none;fill-rule:nonzero;fill:rgb(36.470588%,73.72549%,61.568627%);fill-opacity:1;" d="M 220.289062 95.128906 C 213.503906 92.390625 206.503906 89.488281 199.265625 86.457031 C 203.230469 74.128906 207.03125 63.839844 210.960938 54.777344 L 233.695312 74.214844 Z M 220.289062 95.128906 "/>
<path style=" stroke:none;fill-rule:nonzero;fill:rgb(55.294118%,42.352941%,62.352941%);fill-opacity:1;" d="M 214.183594 68.046875 L 223.199219 75.761719 L 217.144531 85.207031 C 214.527344 84.136719 211.871094 83.039062 209.183594 81.921875 C 210.863281 76.960938 212.527344 72.359375 214.183594 68.046875 M 209.488281 44.273438 C 208.007812 44.273438 206.550781 45.070312 205.871094 46.550781 C 199.601562 60.160156 194.28125 75.328125 189.433594 91.03125 C 191.289062 91.808594 193.144531 92.585938 194.992188 93.351562 C 203.800781 97.023438 212.265625 100.550781 220.414062 103.800781 C 220.894531 103.992188 221.382812 104.078125 221.871094 104.078125 C 223.199219 104.078125 224.480469 103.398438 225.238281 102.214844 L 242.304688 75.601562 C 243.382812 73.921875 243.054688 71.695312 241.535156 70.398438 L 212.128906 45.257812 C 211.359375 44.585938 210.414062 44.273438 209.488281 44.273438 Z M 209.488281 44.273438 "/>
<path style=" stroke:none;fill-rule:nonzero;fill:rgb(36.470588%,73.72549%,61.568627%);fill-opacity:1;" d="M 189.9375 117.824219 C 190.070312 117.878906 194.191406 119.59375 196.160156 120.390625 C 193.441406 121.59375 190.761719 122.878906 188.128906 124.230469 Z M 189.9375 117.824219 "/>
<path style=" stroke:none;fill-rule:nonzero;fill:rgb(55.294118%,42.352941%,62.352941%);fill-opacity:1;" d="M 187.566406 108.488281 C 185.039062 108.488281 183.449219 111.34375 182.351562 115.207031 C 181.113281 119.609375 179.648438 124.816406 178.671875 128.296875 C 178.078125 130.433594 177.488281 132.542969 176.894531 134.632812 C 176.390625 136.414062 177.910156 137.894531 179.601562 137.894531 C 180.121094 137.894531 180.664062 137.753906 181.160156 137.441406 C 189.625 132.078125 198.695312 127.617188 208.257812 124.144531 C 211.679688 122.902344 211.777344 118.113281 208.398438 116.742188 C 203.472656 114.753906 198.449219 112.6875 193.296875 110.550781 C 192.601562 110.265625 190.824219 109.449219 189.015625 108.769531 C 188.503906 108.574219 188.023438 108.488281 187.566406 108.488281 Z M 187.566406 108.488281 "/>
</g>
</svg>
